<?xml version="1.0" standalone="no"?>
<!DOCTYPE svg PUBLIC "-//W3C//DTD SVG 20010904//EN"
 "http://www.w3.org/TR/2001/REC-SVG-20010904/DTD/svg10.dtd">
<svg version="1.0" xmlns="http://www.w3.org/2000/svg"
 width="3188.000000pt" height="820.000000pt" viewBox="0 0 3188.000000 820.000000"
 preserveAspectRatio="xMidYMid meet">

<g transform="translate(0.000000,820.000000) scale(0.100000,-0.100000)"
fill="#EC4F22" stroke="none">
<path d="M3240 8189 c-229 -27 -475 -168 -658 -380 -218 -250 -399 -619 -497
-1009 -9 -36 -21 -82 -26 -102 l-10 -38 -782 0 -783 0 -192 -2842 c-106 -1564
-194 -2853 -195 -2865 -1 -15 56 -93 186 -253 103 -127 190 -236 192 -243 3
-8 -73 -36 -235 -86 l-240 -74 0 -149 0 -148 3345 0 3346 0 -3 152 -3 152
-200 128 c-110 70 -202 133 -204 139 -1 5 43 116 100 245 l102 235 -37 387
c-88 902 -169 1821 -212 2407 -30 411 -29 1288 3 2557 l6 258 -804 2 -804 3
-7 25 c-4 14 -27 98 -52 187 -215 776 -669 1282 -1181 1316 -44 3 -114 1 -155
-4z m274 -573 c198 -98 387 -376 516 -761 27 -82 50 -160 50 -173 l0 -22 -737
2 -738 3 3 30 c6 57 102 329 156 439 129 263 294 446 459 507 39 14 73 19 133
17 70 -3 90 -8 158 -42z m1326 -1821 c104 -216 17 -469 -195 -570 -215 -101
-463 -13 -565 200 -29 60 -34 83 -38 160 -6 127 27 221 106 308 14 15 29 27
33 27 4 0 9 -44 11 -98 3 -89 6 -103 33 -147 114 -184 364 -176 463 14 30 58
32 70 32 159 l0 96 46 -44 c25 -25 58 -72 74 -105z m-2285 94 c95 -105 129
-266 87 -406 -81 -264 -399 -383 -629 -234 -73 47 -118 99 -154 176 -57 121
-59 243 -6 359 22 49 90 136 106 136 3 0 6 -39 6 -88 1 -70 5 -97 24 -134 31
-65 101 -125 169 -144 104 -30 197 -2 271 82 50 57 71 122 71 221 0 40 4 73 9
73 5 0 25 -19 46 -41z m191 -1390 c110 -15 175 -42 239 -100 64 -59 108 -142
130 -244 22 -107 22 -1183 -1 -1292 -47 -228 -199 -345 -449 -344 -211 0 -347
74 -415 224 -49 109 -50 128 -50 770 0 496 3 613 15 665 44 186 163 293 359
322 75 11 87 11 172 -1z m1404 -27 c0 -4 -270 -691 -599 -1527 l-599 -1520
-146 -3 c-80 -1 -146 0 -146 3 0 4 268 684 594 1513 327 829 598 1515 602
1525 5 15 22 17 150 17 79 0 144 -4 144 -8z m213 -1113 c116 -38 197 -118 249
-247 l23 -57 3 -632 c3 -685 2 -705 -52 -811 -51 -101 -158 -178 -284 -202
-90 -18 -252 -8 -325 20 -143 55 -228 168 -257 342 -6 37 -10 291 -10 625 0
613 3 660 56 768 54 111 167 190 307 215 77 13 216 4 290 -21z"/>
<path d="M2600 4213 c-31 -11 -68 -56 -79 -96 -9 -30 -11 -210 -9 -632 3 -550
4 -593 21 -618 28 -43 75 -67 130 -67 64 0 102 21 129 73 l23 42 0 595 c0 662
1 648 -67 690 -32 19 -111 26 -148 13z"/>
<path d="M4081 3075 c-56 -48 -56 -47 -56 -690 0 -575 1 -591 21 -629 54 -104
209 -101 262 4 l22 44 0 581 c0 363 -4 594 -10 617 -6 20 -26 50 -46 67 -31
28 -41 31 -99 31 -53 0 -68 -4 -94 -25z"/>
<path d="M9620 5390 l0 -370 445 0 445 0 0 370 0 370 -445 0 -445 0 0 -370z"/>
<path d="M7120 3241 l0 -2201 584 0 c787 0 890 10 1081 104 240 118 388 364
456 756 35 206 40 433 36 1590 -4 1171 -3 1142 -51 1330 -10 36 -40 112 -67
169 -44 91 -63 116 -142 196 -128 129 -226 180 -432 227 -85 20 -127 21 -777
25 l-688 5 0 -2201z m1165 1404 c44 -22 79 -68 98 -129 9 -32 12 -322 12
-1296 l0 -1255 -23 -42 c-43 -81 -125 -113 -288 -113 l-84 0 0 1431 0 1431
123 -4 c95 -3 131 -8 162 -23z"/>
<path d="M23630 5040 l0 -400 -125 0 -125 0 0 -335 0 -335 125 0 124 0 3
-1267 c3 -1268 3 -1268 25 -1345 53 -187 134 -273 303 -322 89 -26 262 -37
406 -26 109 9 298 39 357 56 16 5 17 28 17 303 l0 297 -84 0 c-97 -1 -131 15
-152 75 -10 26 -13 283 -13 1132 l-1 1097 125 0 125 0 0 335 0 335 -125 0
-125 0 0 400 0 400 -430 0 -430 0 0 -400z"/>
<path d="M25080 3200 l0 -2200 435 0 435 0 0 1000 0 1000 208 -2 207 -3 3
-998 2 -997 435 0 435 0 0 2200 0 2200 -435 0 -435 0 0 -785 0 -785 -210 0
-210 0 0 785 0 785 -435 0 -435 0 0 -2200z"/>
<path d="M30328 5003 l-3 -398 -128 -3 -127 -3 2 -337 3 -337 127 -3 127 -3 4
-1272 c2 -1190 4 -1276 21 -1332 58 -196 148 -284 341 -332 109 -26 391 -24
555 5 69 13 142 27 163 33 l37 10 0 299 0 300 -85 0 c-55 0 -96 5 -114 14 -59
31 -56 -28 -59 1173 l-3 1102 128 3 128 3 3 337 2 337 -127 3 -128 3 -3 398
-2 397 -430 0 -430 0 -2 -397z"/>
<path d="M11768 4819 c-115 -9 -276 -46 -385 -89 -236 -91 -428 -272 -512
-481 -50 -126 -64 -228 -58 -429 10 -307 62 -449 238 -647 88 -99 124 -129
439 -372 417 -322 505 -403 555 -516 43 -96 63 -255 46 -366 -22 -147 -80
-209 -194 -209 -73 0 -115 18 -154 64 -51 63 -55 89 -60 379 l-5 267 -444 0
-444 0 0 -182 c0 -495 74 -742 285 -953 172 -172 369 -251 688 -275 277 -21
538 21 732 118 98 48 149 85 234 166 141 136 219 284 268 508 22 105 25 442 4
558 -42 237 -138 416 -332 624 -97 104 -176 167 -534 428 -170 125 -324 241
-342 260 -94 98 -130 301 -69 390 36 54 68 70 143 75 54 3 75 1 103 -15 68
-38 110 -164 110 -334 l0 -108 462 0 461 0 -6 133 c-31 640 -332 960 -947
1007 -147 11 -141 11 -282 -1z"/>
<path d="M14253 4820 c-223 -16 -415 -72 -548 -161 -270 -181 -396 -490 -425
-1048 -12 -231 -12 -1304 0 -1494 17 -267 57 -436 145 -612 92 -184 186 -282
355 -369 145 -75 287 -110 506 -126 400 -28 729 72 945 289 119 120 190 246
237 421 25 93 26 103 30 508 l4 412 -451 0 -451 0 0 -339 c0 -354 -5 -412 -44
-496 -36 -79 -72 -100 -171 -100 -103 0 -134 20 -179 114 l-31 66 -3 1019 c-3
1116 -4 1086 55 1165 54 70 176 93 263 49 38 -20 49 -32 70 -83 25 -59 25 -64
28 -392 l3 -333 455 0 456 0 -4 368 c-5 357 -5 370 -31 464 -125 468 -582 723
-1214 678z"/>
<path d="M16769 4819 c-271 -22 -489 -117 -660 -288 -174 -174 -277 -400 -309
-677 -8 -69 -10 -373 -8 -1014 4 -811 6 -925 21 -1000 53 -264 124 -409 271
-555 174 -172 371 -251 689 -275 211 -16 440 7 607 62 357 116 576 410 629
843 15 123 15 1864 0 1971 -36 260 -127 457 -292 631 -170 179 -399 279 -694
303 -69 5 -133 9 -142 9 -9 -1 -59 -5 -112 -10z m232 -702 c52 -28 93 -98 109
-188 16 -86 8 -2043 -8 -2090 -16 -48 -50 -97 -85 -123 -43 -32 -152 -35 -211
-6 -39 18 -50 32 -78 88 l-33 67 -3 995 c-2 676 1 1017 8 1065 15 94 54 162
110 192 58 31 132 31 191 0z"/>
<path d="M22290 4821 c-151 -21 -251 -83 -345 -216 -55 -78 -73 -113 -106
-210 l-28 -80 -1 238 0 237 -445 0 -445 0 0 -1875 0 -1875 445 0 445 0 2 1437
3 1438 22 63 c41 122 106 169 218 160 65 -6 101 -28 132 -84 55 -98 53 -39 53
-1586 l0 -1428 435 0 435 0 0 1518 c0 1666 1 1620 -60 1805 -99 297 -294 441
-620 460 -47 3 -110 2 -140 -2z"/>
<path d="M9620 2915 l0 -1875 445 0 445 0 0 1875 0 1875 -445 0 -445 0 0
-1875z"/>
<path d="M18350 3388 c0 -1391 5 -1614 35 -1788 54 -309 182 -484 407 -555
158 -50 405 -52 533 -4 113 42 205 140 286 304 l49 100 0 -203 0 -202 445 0
445 0 0 1875 0 1875 -440 0 -439 0 -4 -1412 c-3 -1312 -4 -1418 -21 -1488 -37
-155 -82 -195 -212 -188 -111 5 -154 48 -174 175 -6 35 -10 624 -10 1486 l0
1427 -450 0 -450 0 0 -1402z"/>
<path d="M27610 3256 c0 -1605 0 -1611 51 -1810 65 -254 210 -405 444 -462 90
-22 335 -25 415 -5 155 39 264 142 357 337 l38 79 3 -197 2 -198 445 0 445 0
0 1875 0 1875 -445 0 -444 0 -4 -1417 c-3 -1538 -1 -1484 -57 -1593 -26 -51
-82 -79 -158 -80 -89 0 -146 36 -171 110 -26 77 -31 327 -31 1628 l0 1352
-445 0 -445 0 0 -1494z"/>
<path d="M25320 775 l0 -45 55 0 55 0 0 45 0 45 -55 0 -55 0 0 -45z"/>
<path d="M30130 775 l0 -45 55 0 55 0 0 45 0 45 -55 0 -55 0 0 -45z"/>
<path d="M27955 783 c-59 -12 -87 -45 -100 -115 -11 -59 11 -105 92 -190 73
-77 74 -79 71 -125 -2 -37 -7 -49 -22 -51 -25 -5 -36 14 -36 66 l0 42 -55 0
-55 0 1 -37 c2 -116 49 -173 141 -173 66 0 102 20 122 70 18 46 21 135 6 176
-6 15 -44 61 -85 104 -77 78 -95 120 -59 134 22 9 44 -11 44 -40 0 -22 4 -24
56 -24 l56 0 -7 43 c-8 49 -26 81 -58 101 -25 16 -82 26 -112 19z"/>
<path d="M24990 490 l0 -290 78 0 c104 0 148 14 172 52 40 67 38 213 -5 252
l-23 21 24 28 c19 23 24 39 24 87 0 118 -28 140 -175 140 l-95 0 0 -290z m155
140 c0 -60 -2 -65 -22 -68 -22 -3 -23 0 -23 68 0 68 1 71 23 68 20 -3 22 -8
22 -68z m5 -169 c14 -27 13 -134 -2 -149 -7 -7 -20 -12 -30 -12 -16 0 -18 10
-18 90 0 83 2 90 20 90 10 0 24 -9 30 -19z"/>
<path d="M26010 490 l0 -290 83 1 c114 0 147 13 175 69 20 41 22 57 22 227 0
266 -11 283 -185 283 l-95 0 0 -290z m153 187 c16 -11 17 -32 15 -192 l-3
-180 -27 -3 -28 -3 0 195 c0 206 2 214 43 183z"/>
<path d="M27020 490 l0 -290 60 0 60 0 0 290 0 290 -60 0 -60 0 0 -290z"/>
<path d="M29040 490 l0 -290 55 0 55 0 0 290 0 290 -55 0 -55 0 0 -290z"/>
<path d="M29220 490 l0 -290 55 0 55 0 0 290 0 290 -55 0 -55 0 0 -290z"/>
<path d="M29560 491 l0 -291 55 0 55 0 0 120 0 120 46 0 c25 0 54 5 65 10 68
37 77 241 13 301 -23 22 -36 24 -130 27 l-104 4 0 -291z m160 170 c15 -30 12
-97 -6 -115 -34 -34 -44 -20 -44 59 0 68 2 75 20 75 10 0 24 -9 30 -19z"/>
<path d="M31314 638 c3 -79 9 -173 13 -210 5 -66 6 -68 33 -68 36 0 37 7 45
220 4 91 9 173 11 183 5 15 -2 17 -52 17 l-57 0 7 -142z"/>
<path d="M25525 676 c-30 -30 -38 -82 -33 -229 2 -99 6 -120 24 -144 29 -38
95 -45 130 -12 l24 22 0 -37 c0 -26 -7 -44 -25 -61 -27 -28 -35 -29 -88 -11
-37 14 -38 13 -52 -15 -20 -37 -20 -36 16 -55 46 -23 178 -17 209 11 45 40 50
70 50 315 l0 230 -55 0 c-52 0 -55 -1 -55 -26 l0 -26 -26 31 c-33 40 -83 43
-119 7z m125 -66 c11 -7 16 -33 19 -100 4 -124 -3 -160 -33 -160 -16 0 -26 7
-30 23 -9 36 -7 193 4 221 10 28 17 31 40 16z"/>
<path d="M26424 686 c-17 -8 -40 -26 -52 -41 -20 -26 -22 -39 -22 -187 0 -181
9 -217 61 -243 43 -23 139 -17 170 11 30 26 49 75 49 124 l0 40 -54 0 -55 0
-3 -46 c-2 -32 -9 -51 -21 -58 -26 -16 -37 8 -37 87 l0 67 85 0 85 0 0 80 c0
46 -6 95 -14 114 -24 58 -119 84 -192 52z m90 -82 c3 -9 6 -38 6 -65 0 -48 -1
-49 -30 -49 -30 0 -30 0 -30 59 0 57 6 68 36 70 7 1 15 -6 18 -15z"/>
<path d="M26763 693 c-34 -7 -73 -59 -73 -99 l0 -34 50 0 c35 0 50 4 50 13 0
7 6 22 14 32 22 31 48 3 44 -48 -3 -38 -6 -41 -48 -56 -104 -37 -124 -67 -118
-179 3 -66 6 -77 31 -98 45 -39 98 -30 125 21 10 18 11 17 12 -12 l0 -33 55 0
55 0 0 213 c0 180 -2 216 -16 236 -30 42 -102 59 -181 44z m87 -312 c0 -75 -3
-90 -17 -95 -27 -11 -43 21 -43 81 0 44 5 59 25 78 13 14 27 25 30 25 3 0 5
-40 5 -89z"/>
<path d="M27270 689 c-97 -39 -107 -162 -17 -230 84 -65 107 -91 107 -124 0
-40 -17 -57 -42 -44 -13 7 -18 21 -18 49 l0 40 -56 0 -56 0 4 -56 c4 -45 10
-61 36 -87 27 -27 40 -31 94 -35 51 -2 70 1 96 18 42 26 66 81 59 137 -6 57
-25 83 -102 144 -64 50 -86 82 -67 101 18 18 47 4 50 -25 3 -26 6 -27 58 -27
l54 0 0 38 c0 21 -7 48 -16 61 -32 44 -123 64 -184 40z"/>
<path d="M28319 669 l-29 -31 0 26 c0 25 -2 26 -55 26 l-55 0 0 -245 0 -245
54 0 54 0 4 195 c3 167 5 197 20 211 14 14 20 15 32 4 14 -10 16 -44 16 -211
l0 -199 55 0 55 0 0 193 c0 203 7 238 44 224 14 -6 16 -30 16 -212 l0 -205 55
0 55 0 0 221 0 221 -29 29 c-38 37 -91 40 -125 6 l-23 -23 -27 23 c-39 33 -81
30 -117 -8z"/>
<path d="M28765 686 c-32 -14 -50 -42 -60 -93 l-7 -33 56 0 c48 0 56 3 56 19
0 10 7 24 15 31 25 21 47 -6 43 -53 -3 -39 -5 -41 -58 -59 -30 -10 -66 -30
-80 -43 -22 -22 -25 -36 -28 -108 -4 -78 -2 -85 23 -115 41 -49 103 -43 133
13 10 18 11 17 12 -12 l0 -33 55 0 55 0 0 205 c0 137 -4 213 -12 230 -25 55
-133 82 -203 51z m91 -394 c-28 -28 -46 2 -46 73 0 57 3 66 28 85 l27 22 3
-83 c2 -63 -1 -86 -12 -97z"/>
<path d="M30031 674 c-30 -25 -31 -25 -31 -5 0 19 -6 21 -55 21 l-55 0 0 -245
0 -245 55 0 55 0 0 195 0 195 45 12 c44 12 45 13 45 55 0 51 -14 55 -59 17z"/>
<path d="M30373 685 c-59 -25 -68 -52 -71 -220 -3 -119 0 -159 12 -188 20 -49
68 -77 131 -77 94 0 145 56 145 160 l0 50 -60 0 -60 0 0 -59 c0 -45 -4 -60
-16 -65 -38 -14 -44 10 -44 165 0 131 2 149 18 157 30 16 42 3 42 -49 l0 -49
60 0 60 0 0 43 c0 114 -108 180 -217 132z"/>
<path d="M30713 685 c-62 -27 -73 -61 -73 -228 0 -207 20 -247 129 -255 102
-7 151 39 151 143 l0 45 -55 0 -55 0 0 -49 c0 -36 -4 -51 -16 -55 -31 -12 -44
13 -44 85 l0 69 85 0 85 0 0 88 c0 49 -6 98 -13 112 -26 53 -124 76 -194 45z
m95 -133 l3 -62 -31 0 c-30 0 -30 1 -30 53 0 55 13 80 40 75 11 -2 16 -19 18
-66z"/>
<path d="M31040 682 c-47 -23 -74 -78 -65 -132 5 -29 18 -49 53 -81 116 -104
112 -99 112 -139 0 -24 -5 -40 -15 -44 -22 -8 -45 22 -45 60 l0 34 -55 0 -55
0 0 -35 c0 -89 56 -145 145 -145 97 0 151 60 143 158 -5 58 -15 71 -141 178
-41 35 -44 45 -21 69 20 20 44 3 44 -31 0 -23 3 -24 61 -24 l61 0 -7 38 c-3
20 -13 48 -22 60 -31 50 -128 67 -193 34z"/>
<path d="M25320 445 l0 -245 55 0 55 0 0 245 0 245 -55 0 -55 0 0 -245z"/>
<path d="M30130 445 l0 -245 55 0 55 0 0 245 0 245 -55 0 -55 0 0 -245z"/>
<path d="M27520 245 c0 -39 3 -45 21 -45 19 0 20 -4 15 -35 -7 -33 -6 -35 22
-35 23 0 32 7 45 35 9 20 17 56 17 80 l0 45 -60 0 -60 0 0 -45z"/>
<path d="M31310 245 l0 -45 55 0 55 0 0 45 0 45 -55 0 -55 0 0 -45z"/>
</g>
</svg>
